PathFileType	4	(X/Y/Z)	Run_300 02
DataRate	CameraRate	NumFrames	NumMarkers	Units	OrigDataRate	OrigDataStartFrame	OrigNumFrames
100	100	6	42	mm	100	221	128
Frame#	Time	LASI			RASI			LPSI			RTH1			RTH2			RTH3			LTH1			LTH2			LTH3			RTB1			RTB2			RTB3			LTB1			LTB2			LTB3			RCAL			RTOE			RMT5			LCAL			LTOE			LMT5			LACR			RACR			CLAV			C7			RUA1			RUA2			RUA3			RLEL			RMEL			LUA1			LUA2			LUA3			LLEL			RFAsuperior			RFAradius			RFAulna			LFAsuperior			LFAradius			LFAulna			LMEL			RPSI		
		X1	Y1	Z1	X2	Y2	Z2	X3	Y3	Z3	X4	Y4	Z4	X5	Y5	Z5	X6	Y6	Z6	X7	Y7	Z7	X8	Y8	Z8	X9	Y9	Z9	X10	Y10	Z10	X11	Y11	Z11	X12	Y12	Z12	X13	Y13	Z13	X14	Y14	Z14	X15	Y15	Z15	X16	Y16	Z16	X17	Y17	Z17	X18	Y18	Z18	X19	Y19	Z19	X20	Y20	Z20	X21	Y21	Z21	X22	Y22	Z22	X23	Y23	Z23	X24	Y24	Z24	X25	Y25	Z25	X26	Y26	Z26	X27	Y27	Z27	X28	Y28	Z28	X29	Y29	Z29	X30	Y30	Z30	X31	Y31	Z31	X32	Y32	Z32	X33	Y33	Z33	X34	Y34	Z34	X35	Y35	Z35	X36	Y36	Z36	X37	Y37	Z37	X38	Y38	Z38	X39	Y39	Z39	X40	Y40	Z40	X41	Y41	Z41	X42	Y42	Z42	

221	  2.210000	1233.026711	942.687331	-476.702178	1230.459510	958.061366	-213.170927	1062.720805	998.061567	-400.397037	1219.828845	798.889306	-160.341055	1283.585758	713.179732	-172.073467	1269.296986	573.107961	-203.016416	1165.676422	783.501557	-524.722154	1238.896906	658.935338	-505.718297	1172.847366	540.764196	-501.801043	1309.670232	324.589998	-290.135404	1230.532837	241.309731	-250.258075	1219.777585	175.481334	-320.862409	1038.838431	357.706305	-426.791495	974.819441	382.479687	-471.274795	900.066721	356.062586	-417.424573	1065.743553	108.155261	-324.806580	1300.452627	 72.645704	-330.163862	1278.614983	 54.535241	-252.817627	756.909157	456.099437	-407.185647	768.107886	215.163143	-375.198931	747.149054	234.910746	-463.311318	1257.655795	1477.336963	-476.394140	1264.749787	1427.097054	-132.793142	1304.689021	1387.302797	-280.600813	1201.343493	1495.703186	-301.285718	1214.704305	1292.543619	-54.155709	1145.093680	1290.210348	-41.473650	1155.881837	1220.494970	-25.872461	1122.949429	1154.089896	  2.085226	1073.595229	1143.826179	-77.722566	1179.163317	1384.870422	-557.760635	1089.480969	1358.917493	-541.130489	1104.308680	1284.101217	-585.748411	1069.071771	1227.635677	-608.293579	1208.659832	1147.090059	-23.569159	1346.674017	1130.151061	-115.636134	1334.327772	1066.205052	-82.974474	1140.021584	1170.684155	-593.605104	1274.938481	1095.319273	-504.273822	1239.789767	1040.025840	-536.403725	1029.945929	1216.317981	-525.789366	1059.229330	1002.236742	-308.712677	
222	  2.220000	1230.541600	941.550453	-477.480308	1230.622846	955.369351	-212.571099	1060.831279	997.518325	-397.942519	1217.157225	795.695988	-160.628608	1277.491003	707.229274	-172.729867	1258.762019	567.537987	-203.328593	1164.208841	782.587419	-525.055963	1247.055274	661.264438	-508.444275	1188.743455	540.463502	-504.927316	1289.262914	317.905937	-290.524064	1207.519801	238.003906	-250.586908	1193.254527	173.564221	-320.891396	1061.806537	357.041774	-429.190017	997.943777	381.059205	-473.603645	923.408089	352.927128	-420.284074	1036.324889	109.734891	-324.347622	1270.538253	 71.854954	-330.362764	1248.652398	 54.401392	-252.772115	776.173040	449.886402	-409.829042	796.805515	209.369258	-379.482827	776.227384	228.915022	-467.719943	1252.028870	1475.824719	-477.282672	1268.366552	1425.539332	-133.789106	1305.167341	1386.068254	-282.237220	1200.569867	1493.265822	-300.833453	1220.359806	1289.981831	-56.243048	1151.015125	1285.015774	-43.545931	1163.793504	1215.658478	-28.838587	1132.370114	1148.161712	 -1.479554	1081.729402	1138.093360	-80.687996	1170.696958	1384.799931	-557.108577	1081.415163	1360.253101	-538.333592	1093.846400	1285.664969	-583.959707	1056.992975	1230.351195	-606.466769	1218.035176	1143.749451	-28.099581	1355.321069	1133.725038	-122.110715	1345.523437	1069.107479	-89.900589	1125.734903	1169.903810	-594.661262	1260.127260	1088.443975	-510.257730	1221.247024	1035.171833	-541.890595	1018.733514	1219.102979	-523.827438	1059.124792	1001.988673	-305.610843	
223	  2.230000	1229.202553	941.854895	-477.891668	1230.869853	953.849551	-212.571751	1059.665249	998.089111	-395.972565	1213.420224	793.815278	-160.729523	1270.745997	703.148646	-172.833982	1247.071576	563.493619	-203.052730	1162.985029	783.080335	-525.544634	1255.013172	665.928227	-511.047710	1204.470636	542.711641	-507.506891	1267.674254	312.651114	-290.745954	1183.618022	235.538968	-250.702655	1166.269139	172.132642	-320.756051	1085.174926	357.414559	-431.154151	1020.983065	380.164169	-475.442529	946.960490	349.321764	-422.528623	1007.035733	111.620837	-323.924128	1240.620876	 71.106215	-330.212581	1218.608321	 54.133096	-252.650387	795.069286	441.280838	-411.584600	827.389082	201.770359	-383.796289	806.682334	221.306393	-472.055030	1246.506468	1475.666832	-478.249103	1271.954891	1425.774095	-134.819728	1305.831867	1386.238907	-284.241695	1200.098673	1492.585373	-300.378119	1225.209046	1289.200446	-58.273335	1155.804783	1282.283625	-46.133014	1170.382606	1213.187726	-32.258926	1140.133594	1144.613912	 -5.627068	1090.100961	1135.092146	-85.237675	1161.326801	1387.074862	-556.406833	1072.529754	1363.998779	-535.009983	1082.129481	1289.736188	-582.475985	1043.183319	1235.695977	-604.888429	1225.492601	1142.770536	-32.644177	1361.954209	1141.462500	-129.622685	1355.443102	1076.133500	-98.317532	1108.967146	1171.861044	-595.893657	1244.746023	1087.505947	-515.837290	1202.992216	1035.552516	-546.420465	1006.356836	1224.849390	-521.338051	1058.993497	1002.727155	-303.382242	
224	  2.240000	1229.077232	943.426062	-478.069597	1231.194290	953.639586	-213.569408	1059.202769	999.890583	-394.774491	1209.124125	792.793118	-160.856258	1263.522467	700.411249	-172.928349	1234.275860	560.671588	-202.510494	1162.760936	785.283139	-526.204487	1262.708148	672.787238	-513.392712	1219.444315	547.832070	-509.332919	1244.944922	308.507215	-290.733930	1158.763657	233.877811	-250.652084	1138.915815	171.235323	-320.610768	1108.606122	358.775615	-432.582350	1043.682984	379.691819	-476.890883	970.712942	345.347242	-424.138414	977.940445	113.934539	-323.713975	1210.748260	 70.463787	-330.121471	1188.470701	 53.934527	-252.612017	813.700992	430.372228	-412.215504	859.827381	192.722307	-388.211620	838.511373	212.529134	-476.363192	1241.360277	1476.863619	-479.277683	1275.188691	1427.790740	-136.078125	1306.539023	1387.872219	-286.641786	1199.997988	1493.882664	-300.172460	1229.537757	1290.166302	-60.552642	1159.795236	1281.872713	-49.115792	1175.765883	1213.186783	-35.629078	1146.984826	1143.288485	-10.122897	1098.440995	1134.185674	-90.550084	1151.564978	1391.673572	-555.585944	1063.414634	1370.163292	-531.032294	1069.639344	1296.499021	-581.041113	1028.312116	1243.739382	-603.133601	1231.954377	1145.000493	-37.758091	1366.995805	1152.608401	-137.789688	1364.176494	1086.716419	-107.645786	1091.420128	1177.664491	-596.651002	1229.481239	1092.041260	-520.533391	1185.686416	1040.860362	-549.731658	993.646506	1233.396661	-518.176513	1058.938106	1004.661063	-302.218137	
225	  2.250000	1229.697219	946.013012	-478.035761	1231.680387	954.622218	-215.282137	1059.296276	1003.038777	-394.177009	1204.741955	792.465832	-161.165292	1256.157126	698.335960	-173.699179	1220.457273	558.917254	-202.044479	1163.880571	789.217522	-526.978516	1270.053813	681.458411	-515.380762	1233.280566	555.481849	-510.458646	1221.184868	305.436049	-290.555934	1133.123373	233.166982	-250.433190	1111.320055	171.126331	-320.362542	1131.753049	361.133016	-433.703249	1065.866871	379.530551	-478.051852	994.867222	341.037944	-425.303767	949.067654	116.812862	-323.524078	1180.926696	 69.928991	-330.220675	1158.296117	 53.901509	-252.655218	832.354118	417.238973	-411.728989	894.018877	182.655372	-392.756689	871.519762	202.905808	-480.482666	1236.623125	1479.519894	-480.280728	1278.062932	1431.468736	-137.720766	1307.203767	1390.948517	-289.418844	1200.055358	1496.828546	-300.395337	1233.513747	1292.952206	-63.080372	1163.391925	1283.452956	-52.513404	1180.435487	1215.450484	-38.787305	1153.512565	1144.030965	-14.738202	1106.055488	1135.035362	-95.710181	1141.950989	1398.340744	-554.545641	1054.722249	1378.409507	-526.470268	1057.041448	1305.954361	-579.358191	1013.474712	1254.379142	-600.806685	1238.082558	1150.292662	-43.546502	1370.805267	1166.236817	-146.234931	1371.857707	1100.056496	-117.274365	1075.037613	1187.678571	-596.446522	1214.946854	1100.873935	-524.128919	1169.737204	1050.184419	-551.710786	981.331117	1244.302014	-514.628068	1059.156424	1007.803046	-301.675830	
226	  2.260000	1230.439879	949.526279	-477.550744	1232.313465	956.652106	-216.901051	1059.864966	1007.460582	-393.838672	1200.453766	792.913632	-161.640092	1248.619506	696.584195	-175.141029	1205.572342	558.283664	-201.893207	1166.179320	794.693516	-527.820053	1277.002588	691.543972	-516.944823	1245.875466	564.905789	-511.105711	1196.548032	303.702328	-290.469319	1106.889994	233.577666	-250.084448	1083.574740	171.942433	-319.867887	1154.461397	364.501537	-434.918087	1087.457113	379.617995	-478.989177	1019.550879	336.414356	-426.225888	920.443322	120.398841	-322.999545	1151.150292	 69.436063	-330.313622	1128.151453	 53.928154	-252.660686	851.411202	401.982452	-410.317711	929.801280	172.034535	-397.341281	905.502928	192.659865	-484.222110	1232.171563	1483.753600	-481.159877	1280.784984	1436.613470	-139.731340	1307.820643	1395.425300	-292.445834	1199.992479	1500.944192	-300.991008	1237.292945	1297.420698	-65.679164	1166.975974	1286.676753	-56.097729	1185.013486	1219.474072	-41.819302	1159.951831	1146.617179	-19.206552	1112.516716	1137.648685	-100.157257	1132.913408	1406.763172	-553.181407	1046.957078	1388.313439	-521.353344	1044.951018	1317.831229	-577.215875	999.592447	1267.283001	-597.748750	1243.996726	1157.648693	-49.520499	1373.495686	1181.546290	-154.560221	1378.468094	1115.332195	-126.745854	1060.747040	1201.107389	-595.228226	1201.518504	1112.667006	-526.718752	1155.275606	1062.331354	-552.469538	969.809474	1257.009514	-510.926970	1059.763701	1011.890006	-301.279932	
